<?xml version="1.0" encoding="UTF-8"?>
<svg xmlns="http://www.w3.org/2000/svg" version="1.1" viewBox="0 0 1366 768">
  <!-- Generator: Adobe Illustrator 29.1.0, SVG Export Plug-In . SVG Version: 2.1.0 Build 142)  -->
  <defs>
    <style>
      .st0 {
        opacity: .41;
      }

      .st1 {
        fill: #b2b2b2;
      }

      .st2 {
        opacity: .63;
      }
    </style>
  </defs>
  <g id="Laag_2">
    <rect class="st1" width="1366" height="627"/>
  </g>
  <g id="Laag_1">
    <path class="st0" d="M588.89,625.93c-24-48.84-92,0-92,0-75-109.56-161,0-161,0-59-84.48-143,0-143,0-82-154.45-204,0-204,0"/>
    <path class="st2" d="M-3.89,629.74s73.47-95.58,133,0c0,0,63-171.61,140,0,0,0,90-135.97,174,0,0,0,82.55-120.12,148.28,0"/>
    <path d="M-3.89,635.17s75-81.84,137,0c0,0,55-145.21,131,0,0,0,101-106.92,182,0,0,0,89.55-75.24,142.78,0"/>
    <path class="st0" d="M1169.89,625.93c-24-48.84-92,0-92,0-75-109.56-161,0-161,0-59-84.48-143,0-143,0-82-154.45-204,0-204,0"/>
    <path class="st2" d="M577.11,629.74s73.47-95.58,133,0c0,0,63-171.61,140,0,0,0,90-135.97,174,0,0,0,82.55-120.12,148.28,0"/>
    <path d="M577.11,635.17s75-81.84,137,0c0,0,55-145.21,131,0,0,0,101-106.92,182,0,0,0,89.55-75.24,142.78,0"/>
    <path class="st0" d="M1635.89,622.93c-24-48.84-92,0-92,0-75-109.56-161,0-161,0-59-84.48-143,0-143,0-82-154.45-204,0-204,0"/>
    <path class="st2" d="M1043.11,626.74s73.47-95.58,133,0c0,0,63-171.61,140,0,0,0,90-135.97,174,0,0,0,82.55-120.12,148.28,0"/>
    <path d="M1043.11,632.17s75-81.84,137,0c0,0,55-145.21,131,0,0,0,101-106.92,182,0,0,0,89.55-75.24,142.78,0"/>
    <rect y="623" width="1366" height="503"/>
  </g>
</svg>